<?xml version="1.0" standalone="no"?><!DOCTYPE svg PUBLIC "-//W3C//DTD SVG 1.1//EN" "http://www.w3.org/Graphics/SVG/1.1/DTD/svg11.dtd"><svg t="1646541308265" class="icon" viewBox="0 0 1024 1024" version="1.1" xmlns="http://www.w3.org/2000/svg" p-id="672" width="48" height="48" xmlns:xlink="http://www.w3.org/1999/xlink"><defs><style type="text/css"></style></defs><path d="M800 128c-106 0-192 85.9-192 192v96c0 106-86 192-192 192h192v287.9h96c106 0 192-85.9 192-192V128h-96z" fill="#81E9FA" p-id="673"></path><path d="M416 703.8V319.9c0-106-86-192-192-192h-96v575.9c0 106 86 192 192 192h288c-106 0-192-85.9-192-192z" fill="#007DEE" p-id="674"></path><path d="M704 607.9H320c-106.1 0-192-85.9-192-192v288c0 106 86 192 192 192h384c106.1 0 192-85.9 192-192v-288c0 106-85.9 192-192 192z" fill="#00B7FF" p-id="675"></path><path d="M608 896H320c-106.1 0-192-85.9-192-192V416.1c0 106 86 192 192 192h96v96c0 106 85.9 191.9 192 191.9z" fill="#0052DD" p-id="676"></path></svg>